PathFileType	4	(X/Y/Z)	/Users/itak/Documents/Research/Walk-IL/dataset/trc/00006_00004.trc
DataRate	CameraRate	NumFrames	NumMarkers	Units	OrigDataRate	OrigDataStartFrame	OrigNumFrames
100.000000	100.000000	4	53	mm	100.000000	385	616
Frame#	Time	RPSI			LPSI			L3			STRN			T10			C7			CLAV			RBAK			LBAK			LSHO			LUPA			LAEL			LAOL			LWTS			LWPS			LFRA			LIFD			LHPS			LHTS			RSHO			RUPA			RAEL			RAOL			RWTS			RWPS			RFRA			RIFD			RHTS			RHPS			RBHD			LFHD			RFHD			LBHD			LHIP			RHIP			RASI			LASI			LKNE			LTHI			LANK			LTIP			LTOE			LMT1			LMT5			LHEE			RKNE			RTHI			RANK			RTIP			RTOE			RMT1			RMT5			RHEE			
		X1	Y1	Z1	X2	Y2	Z2	X3	Y3	Z3	X4	Y4	Z4	X5	Y5	Z5	X6	Y6	Z6	X7	Y7	Z7	X8	Y8	Z8	X9	Y9	Z9	X10	Y10	Z10	X11	Y11	Z11	X12	Y12	Z12	X13	Y13	Z13	X14	Y14	Z14	X15	Y15	Z15	X16	Y16	Z16	X17	Y17	Z17	X18	Y18	Z18	X19	Y19	Z19	X20	Y20	Z20	X21	Y21	Z21	X22	Y22	Z22	X23	Y23	Z23	X24	Y24	Z24	X25	Y25	Z25	X26	Y26	Z26	X27	Y27	Z27	X28	Y28	Z28	X29	Y29	Z29	X30	Y30	Z30	X31	Y31	Z31	X32	Y32	Z32	X33	Y33	Z33	X34	Y34	Z34	X35	Y35	Z35	X36	Y36	Z36	X37	Y37	Z37	X38	Y38	Z38	X39	Y39	Z39	X40	Y40	Z40	X41	Y41	Z41	X42	Y42	Z42	X43	Y43	Z43	X44	Y44	Z44	X45	Y45	Z45	X46	Y46	Z46	X47	Y47	Z47	X48	Y48	Z48	X49	Y49	Z49	X50	Y50	Z50	X51	Y51	Z51	X52	Y52	Z52	X53	Y53	Z53	

386	3.85	230.0528717041016	1030.943481445312	-204.5924530029297	221.8011169433594	1021.585083007812	-368.7786254882812	222.4159240722656	1092.181274414062	-291.9666442871094	447.6963500976562	1281.692016601562	-297.6605834960938	199.7453460693359	1237.24267578125	-289.8439331054688	247.812255859375	1503.658447265625	-307.9859313964844	406.4756469726562	1408.139282226562	-305.0819702148438	198.3785095214844	1369.955078125	-221.5378265380859	227.2220611572266	1460.086181640625	-403.6949768066406	328.847900390625	1461.718017578125	-480.9459228515625	288.0823364257812	1336.339599609375	-552.8211059570312	268.1943969726562	1119.690307617188	-571.289794921875	217.7520751953125	1113.547973632812	-478.5086975097656	345.5755615234375	864.6641845703125	-511.4071960449219	266.1777648925781	852.84765625	-549.5751342773438	274.0041809082031	1002.987487792969	-573.960693359375	366.3410034179688	682.1350708007812	-487.0918579101562	295.9022827148438	761.9517822265625	-547.1923828125	362.6250610351562	770.6734008789062	-523.771484375	332.9092102050781	1493.054321289062	-135.3996887207031	323.4262390136719	1422.654174804688	-60.40763473510742	300.0150451660156	1151.548095703125	-27.66473007202148	285.2323913574219	1122.632690429688	-122.288932800293	478.0816955566406	931.5525512695312	-97.64820098876953	433.6327209472656	897.9307250976562	-24.88043785095215	329.2844543457031	1075.9052734375	-17.36746025085449	541.1693115234375	760.9085693359375	-132.0784149169922	542.3978881835938	835.705322265625	-97.83816528320312	499.4014587402344	813.7263793945312	-40.53771591186523	315.5727233886719	1687.354370117188	-376.6916809082031	496.771728515625	1685.462768554688	-254.4127197265625	497.2183837890625	1684.007568359375	-353.2603454589844	323.2970581054688	1685.000122070312	-232.4654693603516	323.4127807617188	925.4551391601562	-478.0491638183594	342.8221740722656	925.53271484375	-101.9604415893555	446.3978881835938	953.083251953125	-176.3392181396484	435.8236999511719	973.84912109375	-412.3158264160156	531.1841430664062	530.986572265625	-417.6710205078125	451.2862854003906	638.9464721679688	-465.0797119140625	610.362548828125	42.47004699707031	-421.0238952636719	540.9271850585938	282.9844360351562	-438.8415222167969	812.5029907226562	110.2285308837891	-345.3301391601562	754.77587890625	97.69249725341797	-331.1737365722656	729.22119140625	79.84244537353516	-433.0943298339844	540.400634765625	28.14717102050781	-371.5387268066406	269.3126831054688	495.0420532226562	-161.4778900146484	338.9696350097656	757.0204467773438	-115.2034301757812	6.984599113464355	64.07110595703125	-193.4333801269531	208.1116180419922	379.2266845703125	-165.6367645263672	225.7500610351562	38.92815399169922	-270.0923461914062	161.9901580810547	51.09426116943359	-287.4501342773438	154.3843078613281	37.05136489868164	-191.5903015136719	-53.43761444091797	81.25066375732422	-228.7760620117188	
387	3.86	239.578857421875	1030.389282226562	-206.6497344970703	231.8281402587891	1021.061889648438	-370.9363708496094	232.2651214599609	1091.197875976562	-293.9508361816406	457.2001953125	1281.044799804688	-298.5928039550781	209.2858123779297	1236.284790039062	-291.9662170410156	257.0647277832031	1502.818603515625	-309.7808532714844	415.818359375	1407.446533203125	-306.1605529785156	207.3048706054688	1368.9775390625	-223.6738433837891	236.9157562255859	1459.177124023438	-405.6163635253906	338.9281921386719	1460.992065429688	-482.3812561035156	298.7280578613281	1335.587158203125	-554.5486450195312	279.3550109863281	1118.932495117188	-573.4559936523438	228.5859680175781	1112.462280273438	-480.9022216796875	357.9811401367188	864.3543090820312	-513.6676025390625	278.706787109375	852.080078125	-551.9915771484375	285.7446594238281	1002.245666503906	-576.2528076171875	379.7922973632812	681.9265747070312	-489.4788208007812	309.0084838867188	761.343017578125	-549.643798828125	375.5896911621094	770.4454345703125	-526.08837890625	341.3249816894531	1492.157348632812	-136.7732238769531	331.4532775878906	1421.72509765625	-61.86261367797852	306.8800964355469	1150.717041015625	-29.67220115661621	292.7439575195312	1121.95068359375	-124.4280319213867	482.0944213867188	927.5961303710938	-97.05760192871094	436.2401123046875	895.104736328125	-24.69148254394531	335.0330200195312	1074.902099609375	-18.98747634887695	542.4107055664062	755.6729736328125	-130.1673889160156	544.6748657226562	830.5609130859375	-96.11142730712891	500.6427612304688	809.6244506835938	-39.26180267333984	324.812255859375	1686.669555664062	-378.0341186523438	505.7857971191406	1684.870849609375	-255.4044952392578	506.4130859375	1683.410034179688	-354.2353210449219	332.2324829101562	1684.304077148438	-233.7819366455078	334.4895935058594	924.9039306640625	-479.6038513183594	351.8240661621094	924.8203125	-103.3560028076172	455.7986145019531	952.2510375976562	-177.1480255126953	446.4625244140625	973.2164306640625	-413.2521057128906	542.045654296875	530.4325561523438	-418.09814453125	462.6218566894531	638.83349609375	-465.4356079101562	613.0073852539062	40.26913452148438	-420.3377380371094	548.61669921875	281.4791564941406	-438.2810668945312	816.172119140625	102.8578643798828	-343.3885498046875	758.2297973632812	91.41365814208984	-329.6304626464844	732.6693725585938	74.8701171875	-431.8033752441406	542.5875854492188	27.7776985168457	-370.9311828613281	276.7549133300781	494.5919189453125	-161.9344024658203	347.2914428710938	756.5277099609375	-116.1653289794922	8.046872138977051	66.77020263671875	-192.9246215820312	214.1136474609375	379.217041015625	-165.8737487792969	225.8494262695312	38.88225555419922	-270.1212768554688	162.4979553222656	51.8349723815918	-287.1376342773438	154.8282928466797	36.96733093261719	-191.4717254638672	-52.13179016113281	85.18585205078125	-228.2212371826172	
388	3.87	249.3404388427734	1029.953491210938	-208.6787567138672	241.9458923339844	1020.721984863281	-373.095703125	242.2952575683594	1090.334350585938	-295.9178161621094	466.794921875	1280.547973632812	-299.5951538085938	218.933837890625	1235.437255859375	-294.1449890136719	266.3828125	1502.112060546875	-311.6375122070312	425.2363586425781	1406.8916015625	-307.3038635253906	216.3017425537109	1368.11181640625	-225.890869140625	246.6980590820312	1458.390380859375	-407.6043090820312	349.06982421875	1460.394409179688	-483.8837585449219	309.455078125	1334.94970703125	-556.3392333984375	290.5813598632812	1118.289916992188	-575.6641235351562	239.5264587402344	1111.486328125	-483.3178100585938	370.4413757324219	864.1632080078125	-516.0059814453125	291.2481994628906	851.4267578125	-554.4094848632812	297.5248413085938	1001.621765136719	-578.5913696289062	393.306396484375	681.8622436523438	-491.9521789550781	322.1307067871094	760.8640747070312	-552.1234130859375	388.5877380371094	770.3426513671875	-528.4767456054688	349.8039245605469	1491.361328125	-138.2003936767578	339.5511169433594	1420.890014648438	-63.37920379638672	313.7942504882812	1149.98828125	-31.75740051269531	300.3772277832031	1121.3515625	-126.6361541748047	485.9458618164062	923.657470703125	-96.39382171630859	438.6348876953125	892.3876953125	-24.47475814819336	340.7926330566406	1074.02099609375	-20.66002464294434	543.324951171875	750.4473876953125	-128.0899963378906	546.6557006835938	825.4185791015625	-94.25720977783203	501.5799560546875	805.60595703125	-37.87279510498047	334.1384582519531	1686.15673828125	-379.4081726074219	514.8722534179688	1684.423583984375	-256.4163513183594	515.6826782226562	1682.96240234375	-355.2217407226562	341.2215881347656	1683.750244140625	-235.1323394775391	345.7030029296875	924.5247192382812	-481.1437072753906	361.1055908203125	924.1422729492188	-104.8176574707031	465.4098510742188	951.5335083007812	-178.0513000488281	457.2623901367188	972.7575073242188	-414.2480163574219	552.8576049804688	529.9254150390625	-418.5648498535156	473.850830078125	638.80224609375	-465.8454895019531	615.2330932617188	38.31089019775391	-419.848388671875	556.221435546875	280.1746520996094	-437.8101501464844	819.42236328125	94.92618560791016	-341.3057556152344	761.2465209960938	84.73508453369141	-328.010009765625	735.7998046875	69.64450836181641	-430.4999389648438	544.2694091796875	27.96222305297852	-370.5991516113281	284.6134338378906	494.1595764160156	-162.4374084472656	355.9467468261719	756.0971069335938	-117.1801528930664	9.261438369750977	69.71176910400391	-192.4110870361328	220.4005584716797	379.2478332519531	-166.1593017578125	225.9151763916016	38.80959320068359	-270.1878051757812	162.993896484375	52.53356170654297	-286.8679504394531	155.3510589599609	36.8887939453125	-191.3444976806641	-50.57076263427734	89.47650909423828	-227.6482238769531	
389	3.88	259.3377685546875	1029.650512695312	-210.6409301757812	252.1702423095703	1020.60400390625	-375.2030639648438	252.4921112060547	1089.646240234375	-297.828369140625	476.4685363769531	1280.23291015625	-300.6595458984375	228.6673126220703	1234.745483398438	-296.3621520996094	275.7624816894531	1501.572265625	-313.5501403808594	434.7215881347656	1406.504272460938	-308.50732421875	225.3662109375	1367.407348632812	-228.1778564453125	256.5653381347656	1457.768798828125	-409.6531677246094	359.2615966796875	1459.956909179688	-485.44580078125	320.2586364746094	1334.458374023438	-558.1861572265625	301.8886413574219	1117.794555664062	-577.9003295898438	250.5750579833984	1110.650512695312	-485.7462158203125	382.9510192871094	864.113525390625	-518.3900146484375	303.8157653808594	850.9176635742188	-556.8319091796875	309.3601684570312	1001.151000976562	-580.962646484375	406.8871765136719	681.9683837890625	-494.5078430175781	335.273193359375	760.5454711914062	-554.629150390625	401.6305541992188	770.4065551757812	-530.9230346679688	358.3447875976562	1490.703002929688	-139.6752777099609	347.7160034179688	1420.18310546875	-64.95726013183594	320.7627258300781	1149.399047851562	-33.92464828491211	308.1306762695312	1120.867553710938	-128.9186401367188	489.631591796875	919.78955078125	-95.66132354736328	440.8049011230469	889.8330688476562	-24.2442512512207	346.5735168457031	1073.301147460938	-22.38823509216309	543.9077758789062	745.2967529296875	-125.8425369262695	548.3320922851562	820.3380126953125	-92.27474975585938	502.2024841308594	801.7346801757812	-36.37820816040039	343.5529174804688	1685.851318359375	-380.8086853027344	524.0308837890625	1684.140991210938	-257.4444580078125	525.0293579101562	1682.688598632812	-356.2180480957031	350.2730407714844	1683.37060546875	-236.5136260986328	357.0135192871094	924.39111328125	-482.6640014648438	370.6748657226562	923.5145263671875	-106.3461685180664	475.2255249023438	950.9635620117188	-179.0513000488281	468.1902465820312	972.5279541015625	-415.2969970703125	563.5961303710938	529.542236328125	-419.0615234375	484.9602966308594	638.9117431640625	-466.306884765625	617.2540893554688	36.65836334228516	-419.5751037597656	563.8268432617188	279.1484069824219	-437.5171203613281	822.4007568359375	86.80543518066406	-339.2462768554688	763.9993896484375	78.01686096191406	-326.4471130371094	738.7579345703125	64.36263275146484	-429.2829284667969	545.718017578125	28.68713760375977	-370.5400085449219	292.9671630859375	493.7415771484375	-162.9963684082031	364.9578247070312	755.7234497070312	-118.2542953491211	10.66711521148682	72.92954254150391	-191.9117279052734	227.0567779541016	379.336181640625	-166.48046875	225.9305877685547	38.70892715454102	-270.2990417480469	163.5014190673828	53.18558883666992	-286.6501770019531	155.9617462158203	36.82358551025391	-191.2112121582031	-48.69571685791016	94.17475128173828	-227.0829620361328	
